<svg width="221" height="25" viewBox="0 0 221 25" fill="none" xmlns="http://www.w3.org/2000/svg">
<path d="M195.386 0L1.45534 0.789151L4.65708 6.5843C0.145534 10.1902 2.91068 12.8945 2.32854 12.8945C1.86283 12.8945 1.55236 14.6974 1.45534 15.5989C0.407495 14.3626 0.0485113 15.0838 0 15.5989V25H1.45534L4.65708 18.6897V25H5.38475L6.25795 22.1668L6.98562 25H221V21.3776H219.69C219.399 20.0898 218.992 17.2824 219.69 16.3552C220.563 15.1961 220.563 10.56 219.69 9.401C218.817 8.24197 219.69 7.34051 218.817 6.82538C218.118 6.41329 217.847 5.02245 217.798 4.37855L219.69 0H203.39L202.372 2.18927L201.498 0H199.461L197.278 3.3483L195.386 0Z" fill="#D8831C"/>
</svg>
